<svg width="48" height="48" viewBox="0 0 48 48" fill="none" xmlns="http://www.w3.org/2000/svg" role="img" aria-label="Entebbe Flight Tracker">
  <rect x="2" y="2" width="44" height="44" rx="11" fill="#ffffff" stroke="#e3e7e6"/>
  <path d="M24 5c6.5 2.1 11.5 3.4 15 3.8v12.4c0 9.6-6.1 16.2-15 19.8-8.9-3.6-15-10.2-15-19.8V8.8C12.5 8.4 17.5 7.1 24 5Z" fill="#16344e"/>
  <path d="M24 8.4c5.2 1.7 9.2 2.7 12 3v10.2c0 7.7-4.9 13-12 16-7.1-3-12-8.3-12-16V11.4c2.8-.3 6.8-1.3 12-3Z" fill="#1c4val" opacity="0"/>
  <path d="M30.4 25.1 26 23.4v-4.1c0-.9-.7-2-2-2s-2 1.1-2 2v4.1l-4.4 1.7c-.36.14-.6.49-.6.88v1.0c0 .33.31.57.63.49L22 26.7v3l-1.4 1c-.25.18-.4.47-.4.78v.6c0 .31.29.54.6.46l3.2-.86 3.2.86c.31.08.6-.15.6-.46v-.6c0-.31-.15-.6-.4-.78l-1.4-1v-3l3.77 1.07c.32.08.63-.16.63-.49v-1.0c0-.39-.24-.74-.6-.88Z" fill="#b6883b"/>
</svg>
