<svg width="600" height="800" viewBox="0 0 600 800" fill="none" xmlns="http://www.w3.org/2000/svg" preserveAspectRatio="xMidYMid slice">
  <defs>
    <pattern id="dots" width="40" height="40" patternUnits="userSpaceOnUse">
      <circle cx="2" cy="2" r="1.4" fill="#ffffff"/>
    </pattern>
  </defs>
  <rect width="600" height="800" fill="url(#dots)"/>
  <g stroke="#ffffff" stroke-width="1.4" fill="none" opacity="0.8">
    <path d="M-20 640 C 160 560, 320 600, 520 470 S 720 320, 880 300" stroke-dasharray="6 8"/>
    <path d="M-20 720 C 200 700, 360 660, 540 560 S 760 420, 900 410" stroke-dasharray="6 8"/>
    <circle cx="520" cy="470" r="5" fill="#ffffff"/>
    <circle cx="160" cy="560" r="5" fill="#ffffff"/>
    <circle cx="300" cy="115" r="5" fill="#ffffff"/>
  </g>
  <path d="M300 70 l9 22 23 2 -17 15 5 23 -20 -12 -20 12 5 -23 -17 -15 23 -2 Z" fill="#ffffff" opacity="0.55"/>
</svg>
